<svg xmlns="http://www.w3.org/2000/svg" viewBox="0 0 1200 900" role="img" aria-label="Arm circles demo">
  <defs>
    <linearGradient id="bg" x1="0" y1="0" x2="1" y2="1">
      <stop offset="0%" stop-color="#0b152c"/>
      <stop offset="100%" stop-color="#1e40af"/>
    </linearGradient>
  </defs>
  <rect width="1200" height="900" fill="url(#bg)"/>
  <ellipse cx="600" cy="790" rx="250" ry="26" fill="#081021" opacity="0.45"/>
  <g fill="none" stroke-linecap="round" stroke-linejoin="round">
    <circle cx="600" cy="226" r="46" fill="#f5cdb7" stroke="#d39b83" stroke-width="5"/>
    <path d="M600 276 L600 500" stroke="#eef4ff" stroke-width="22"/>
    <path d="M600 318 L518 372 L472 468" stroke="#f5cdb7" stroke-width="16"/>
    <path d="M600 318 L682 372 L728 468" stroke="#f5cdb7" stroke-width="16"/>
    <path d="M470 468 L436 550" stroke="#f5cdb7" stroke-width="14"/>
    <path d="M730 468 L764 550" stroke="#f5cdb7" stroke-width="14"/>
    <path d="M600 500 L560 676" stroke="#eef4ff" stroke-width="18"/>
    <path d="M600 500 L640 676" stroke="#eef4ff" stroke-width="18"/>
    <path d="M420 420 A120 120 0 0 1 520 540" stroke="#7dd3fc" stroke-width="10" opacity="0.9"/>
    <path d="M780 420 A120 120 0 0 0 680 540" stroke="#7dd3fc" stroke-width="10" opacity="0.9"/>
    <circle cx="436" cy="550" r="10" fill="#f5cdb7" stroke="none"/>
    <circle cx="764" cy="550" r="10" fill="#f5cdb7" stroke="none"/>
  </g>
  <text x="600" y="842" text-anchor="middle" fill="#dbeafe" font-size="62" font-family="Inter, Arial, sans-serif" font-weight="700">Arm Circles</text>
</svg>
